<?xml version="1.0" standalone="no"?><svg xmlns="http://www.w3.org/2000/svg" viewBox="0 0 1440 320"><path fill="#101920" fill-opacity="1" d="M0,96L0,160L36.9,160L36.9,224L73.8,224L73.8,288L110.8,288L110.8,192L147.7,192L147.7,160L184.6,160L184.6,32L221.5,32L221.5,160L258.5,160L258.5,64L295.4,64L295.4,224L332.3,224L332.3,160L369.2,160L369.2,288L406.2,288L406.2,64L443.1,64L443.1,0L480,0L480,128L516.9,128L516.9,288L553.8,288L553.8,64L590.8,64L590.8,32L627.7,32L627.7,160L664.6,160L664.6,96L701.5,96L701.5,224L738.5,224L738.5,160L775.4,160L775.4,224L812.3,224L812.3,256L849.2,256L849.2,256L886.2,256L886.2,32L923.1,32L923.1,0L960,0L960,224L996.9,224L996.9,0L1033.8,0L1033.8,160L1070.8,160L1070.8,192L1107.7,192L1107.7,256L1144.6,256L1144.6,32L1181.5,32L1181.5,0L1218.5,0L1218.5,288L1255.4,288L1255.4,64L1292.3,64L1292.3,224L1329.2,224L1329.2,288L1366.2,288L1366.2,128L1403.1,128L1403.1,160L1440,160L1440,320L1403.1,320L1403.1,320L1366.2,320L1366.2,320L1329.2,320L1329.2,320L1292.3,320L1292.3,320L1255.4,320L1255.4,320L1218.5,320L1218.5,320L1181.5,320L1181.5,320L1144.6,320L1144.6,320L1107.7,320L1107.7,320L1070.8,320L1070.8,320L1033.8,320L1033.8,320L996.9,320L996.9,320L960,320L960,320L923.1,320L923.1,320L886.2,320L886.2,320L849.2,320L849.2,320L812.3,320L812.3,320L775.4,320L775.4,320L738.5,320L738.5,320L701.5,320L701.5,320L664.6,320L664.6,320L627.7,320L627.7,320L590.8,320L590.8,320L553.8,320L553.8,320L516.9,320L516.9,320L480,320L480,320L443.1,320L443.1,320L406.2,320L406.2,320L369.2,320L369.2,320L332.3,320L332.3,320L295.4,320L295.4,320L258.5,320L258.5,320L221.5,320L221.5,320L184.6,320L184.6,320L147.7,320L147.7,320L110.8,320L110.8,320L73.8,320L73.8,320L36.9,320L36.9,320L0,320L0,320Z"></path></svg>